<?xml version="1.0" standalone="no"?>
<!DOCTYPE svg PUBLIC "-//W3C//DTD SVG 20010904//EN"
 "http://www.w3.org/TR/2001/REC-SVG-20010904/DTD/svg10.dtd">
<svg version="1.0" xmlns="http://www.w3.org/2000/svg"
 width="600.000000pt" height="600.000000pt" viewBox="0 0 600.000000 600.000000"
 preserveAspectRatio="xMidYMid meet">
<metadata>
Created by potrace 1.11, written by Peter Selinger 2001-2013
</metadata>
<g transform="translate(0.000000,600.000000) scale(0.100000,-0.100000)"
fill="#000000" stroke="none">
<path d="M1660 5978 c-104 -12 -148 -25 -259 -80 -88 -43 -117 -64 -185 -133
-45 -44 -96 -106 -115 -138 -213 -361 -113 -797 235 -1027 39 -25 97 -57 127
-69 l56 -23 -23 -47 c-61 -121 -131 -337 -150 -461 -3 -19 -7 -44 -10 -55 -13
-67 -18 -237 -17 -682 0 -358 -3 -503 -11 -503 -22 0 -94 -53 -119 -89 -15
-20 -29 -52 -32 -71 -4 -19 -7 -167 -8 -327 l-2 -293 29 -57 c24 -48 39 -64
87 -92 l57 -34 -1 -815 c0 -789 0 -816 19 -841 10 -14 30 -32 43 -38 19 -10
379 -13 1647 -13 l1624 0 34 34 c33 33 34 36 34 117 0 46 1 418 1 826 l-1 742
37 12 c58 19 118 86 129 145 9 51 10 579 1 625 -13 65 -75 140 -134 161 l-33
12 0 520 c0 287 -2 537 -4 556 -11 118 -21 177 -47 277 -29 115 -80 256 -119
332 -12 24 -20 44 -18 45 2 1 31 14 65 28 186 78 352 258 418 453 95 285 -4
623 -239 818 -92 75 -219 135 -326 153 -19 3 -38 8 -42 10 -18 11 -212 3 -279
-11 -150 -33 -303 -128 -412 -255 -57 -67 -130 -211 -153 -302 l-16 -66 -41
14 c-48 17 -208 50 -292 60 -81 10 -272 10 -370 1 -84 -8 -298 -53 -327 -68
-24 -13 -25 -13 -33 34 -12 63 -11 62 -40 137 -121 317 -450 517 -785 478z
m146 -212 c175 -15 339 -128 416 -288 44 -90 59 -152 62 -263 3 -73 7 -89 25
-109 38 -41 77 -41 193 -1 104 36 203 62 268 71 127 17 175 20 283 18 67 -1
150 -7 184 -14 35 -6 75 -13 90 -16 63 -11 209 -56 283 -87 46 -19 92 -6 120
33 16 23 23 49 25 105 6 116 32 200 89 289 98 154 264 246 443 247 266 0 475
-163 540 -422 11 -45 12 -184 1 -234 -42 -205 -214 -372 -432 -420 -60 -13
-87 -24 -108 -45 -31 -32 -38 -82 -14 -115 63 -93 162 -324 192 -452 38 -161
42 -238 43 -770 l1 -523 -32 -1 c-50 -1 -120 -1 -150 0 -24 1 -28 5 -28 29 -1
38 -32 102 -66 134 -63 59 -79 61 -429 61 -350 0 -367 -3 -429 -61 -32 -30
-66 -101 -66 -138 0 -20 -5 -24 -32 -25 -18 0 -419 -1 -891 -2 l-858 -2 1 535
c1 294 5 555 10 580 4 25 11 66 14 92 18 134 115 389 196 513 44 67 51 114 24
153 -21 31 -49 43 -129 58 -255 49 -444 276 -445 534 0 246 186 482 420 529
65 13 101 18 115 15 6 -2 38 -5 71 -8z m2281 -2989 c4 -4 7 -1171 4 -1509 l-1
-58 -285 0 -285 0 0 440 c-1 242 -1 496 -1 565 0 69 0 224 1 344 l0 220 23 3
c37 5 538 0 544 -5z m-779 -494 l2 -273 -975 0 -975 0 0 273 0 272 973 0 972
0 3 -272z m1370 268 c5 -1 8 -449 3 -528 -1 -10 -46 -13 -189 -13 l-187 0 1
268 c1 147 2 269 3 272 1 5 345 6 369 1z m-1370 -1458 l2 -701 31 -26 c17 -14
36 -26 42 -27 7 0 22 -2 35 -3 31 -4 80 29 92 60 6 14 10 151 10 315 l0 290
23 -3 22 -3 5 -301 c5 -329 5 -324 66 -350 48 -20 98 -5 128 38 14 19 16 67
16 320 l0 298 25 -2 25 -2 0 -297 c0 -283 1 -297 20 -322 12 -15 37 -31 58
-36 30 -9 44 -7 79 10 35 17 44 27 49 57 4 20 8 160 8 311 l1 274 23 3 c17 3
22 -1 22 -19 1 -12 1 -144 2 -294 0 -245 2 -274 19 -301 20 -34 69 -53 113
-45 32 6 72 46 78 76 2 12 3 329 3 705 l-1 682 103 0 103 0 0 -749 0 -750
-1490 0 -1490 0 0 750 0 749 888 -2 887 -3 3 -702z"/>
<path d="M4110 5411 c-127 -39 -228 -155 -244 -281 -12 -91 -6 -101 147 -232
77 -66 155 -126 173 -134 69 -29 188 18 264 103 147 167 90 426 -115 524 -49
24 -72 29 -130 28 -38 0 -81 -4 -95 -8z m158 -219 c64 -42 72 -154 13 -199
-26 -20 -37 -16 -108 44 -111 94 -107 85 -62 131 49 50 104 58 157 24z"/>
<path d="M1719 5389 c-90 -32 -151 -87 -197 -179 -23 -47 -27 -67 -27 -140 0
-71 4 -94 26 -140 53 -111 157 -183 264 -184 l61 -1 119 99 c65 55 136 117
158 138 l40 38 -6 71 c-19 225 -232 370 -438 298z m188 -233 c46 -49 46 -47
-33 -113 -22 -18 -52 -43 -68 -57 -33 -28 -54 -23 -82 19 -28 43 -29 96 -2
135 49 72 128 79 185 16z"/>
<path d="M3896 3803 c-103 -31 -190 -159 -189 -278 2 -169 189 -302 358 -255
55 16 141 89 163 140 43 100 42 171 -3 260 -55 110 -205 170 -329 133z m137
-221 c9 -8 17 -27 17 -42 0 -27 -32 -70 -53 -70 -35 1 -60 16 -72 43 -16 39
-3 73 34 85 29 10 48 6 74 -16z"/>
<path d="M1984 3801 c-155 -39 -252 -247 -182 -388 49 -97 149 -157 263 -157
86 0 134 22 194 90 90 103 96 245 15 351 -28 37 -97 86 -134 97 -42 12 -123
15 -156 7z m115 -224 c49 -40 11 -123 -52 -113 -42 6 -72 68 -49 102 22 32 68
37 101 11z"/>
<path d="M2888 3735 c-162 -42 -253 -142 -253 -277 0 -58 4 -72 30 -110 83
-118 308 -187 473 -144 253 65 348 272 196 430 -94 98 -287 142 -446 101z
m242 -217 c42 -18 73 -46 64 -59 -3 -5 -24 -19 -47 -31 -60 -31 -194 -31 -253
0 -53 27 -60 46 -27 67 65 43 190 54 263 23z"/>
</g>
</svg>
